<svg width="15" height="29" viewBox="0 0 15 29" fill="none" xmlns="http://www.w3.org/2000/svg">
<path d="M13.5488 8.7541C13.0281 8.7541 12.6043 9.17793 12.6043 9.69863V21.4689C12.6043 22.698 12.1199 23.915 11.2723 24.8051C10.4307 25.6891 9.14102 26.24 7.91191 26.24H7.08848C5.90176 26.24 4.69688 25.7012 3.77051 24.7506C2.8502 23.8121 2.32344 22.5951 2.32344 21.4084V6.22324C2.32344 5.32109 2.69883 4.47344 3.3709 3.83164C4.04297 3.1959 4.92695 2.84473 5.85332 2.84473C6.76758 2.84473 7.62734 3.1959 8.26309 3.82559C8.89883 4.46133 9.25605 5.31504 9.25605 6.22324V20.4033C9.25605 21.4387 8.43262 22.3529 7.5002 22.3529C6.67676 22.3529 5.79277 21.5719 5.79277 20.4033V12.3143C5.79277 11.7936 5.36895 11.3697 4.84824 11.3697C4.32754 11.3697 3.90371 11.7936 3.90371 12.3143V20.4033C3.90371 22.5527 5.44766 24.1754 7.5002 24.1754C8.49922 24.1754 9.41953 23.8061 10.0855 23.1279C10.7697 22.4377 11.1451 21.4689 11.1451 20.4033V6.22324C11.1451 4.80645 10.5941 3.47441 9.58906 2.48145C8.59004 1.48242 7.25801 0.9375 5.83516 0.9375C4.41231 0.9375 3.08027 1.48242 2.06914 2.48145C1.05801 3.48047 0.500977 4.80645 0.500977 6.2293V21.4145C0.500977 23.1521 1.23965 24.9201 2.47481 26.1371C3.74023 27.3844 5.375 28.0686 7.08242 28.0686H7.90586C9.57695 28.0686 11.2541 27.3602 12.5014 26.125C13.1189 25.5135 13.6033 24.8111 13.9484 24.0301C14.3057 23.2127 14.4873 22.3529 14.4873 21.4811V9.69863C14.4934 9.17793 14.0695 8.7541 13.5488 8.7541Z" fill="#0076FF"/>
</svg>
