<svg width="143" height="142" viewBox="0 0 143 142" fill="none" xmlns="http://www.w3.org/2000/svg">
<path d="M82.833 75.1512H86.727V63.4694H96.4619V59.5754H86.727V51.7875H98.4089V47.8936H82.833V75.1512ZM71.1512 47.8936H63.3633V75.1512H71.1512C73.2167 75.1512 75.1975 74.3307 76.6581 72.8702C78.1186 71.4097 78.9391 69.4288 78.9391 67.3633V55.6815C78.9391 53.616 78.1186 51.6351 76.6581 50.1746C75.1975 48.7141 73.2167 47.8936 71.1512 47.8936ZM75.0451 67.3633C75.0451 68.3961 74.6349 69.3865 73.9046 70.1168C73.1744 70.847 72.1839 71.2573 71.1512 71.2573H67.2572V51.7875H71.1512C72.1839 51.7875 73.1744 52.1978 73.9046 52.928C74.6349 53.6583 75.0451 54.6487 75.0451 55.6815V67.3633ZM55.5754 47.8936H43.8935V75.1512H47.7874V65.4164H55.5754C56.6081 65.4164 57.5985 65.0061 58.3288 64.2758C59.0591 63.5456 59.4693 62.5551 59.4693 61.5224V51.7875C59.4693 50.7548 59.0591 49.7643 58.3288 49.0341C57.5985 48.3038 56.6081 47.8936 55.5754 47.8936ZM55.5754 61.5224H47.7874V51.7875H55.5754V61.5224Z" fill="#0076FF"/>
<path d="M79.135 92.9891L81.8884 95.7425L70.8747 106.756L59.8609 95.7425L62.6143 92.9891L68.928 99.3027V81.1685H72.8214V99.3027L79.135 92.9891Z" fill="#0076FF"/>
<path d="M48.264 138.615C49.6283 139.058 50.8706 138.975 51.9907 138.367C53.0996 137.755 53.8903 136.722 54.3629 135.267C54.8392 133.801 54.7973 132.491 54.2374 131.337C53.6739 130.194 52.7269 129.407 51.3964 128.974C50.3027 128.619 49.1589 128.59 47.9652 128.888L47.8239 127.309C49.1822 126.965 50.5943 127.031 52.0601 127.507C53.9431 128.119 55.2746 129.181 56.0547 130.693C56.8198 132.214 56.8873 133.943 56.2571 135.883C55.627 137.822 54.5632 139.178 53.0656 139.95C51.5644 140.734 49.8554 140.815 47.9385 140.192C46.4727 139.716 45.2915 138.939 44.3947 137.862L45.4373 136.668C46.2281 137.61 47.1703 138.259 48.264 138.615Z" fill="white"/>
<path d="M31.38 131.708L34.7249 127.104L34.6962 127.083L27.2078 128.676L25.3374 127.317L33.5998 125.627L32.8241 116.71L34.6945 118.069L35.3233 126.22L35.3521 126.241L39.0106 121.205L40.5932 122.355L32.9626 132.857L31.38 131.708Z" fill="white"/>
<path d="M27.2417 111.11L14.0214 115L12.767 113.274L20.5519 101.902L21.7853 103.6L19.6527 106.534L22.6004 110.592L26.0501 109.47L27.2417 111.11ZM21.0809 111.102L18.6977 107.822L14.8434 113.106L14.8643 113.135L21.0809 111.102Z" fill="white"/>
<path d="M10.613 89.5556C11.2275 90.1039 11.6812 90.829 11.9743 91.731C12.4946 93.3322 12.5469 94.5867 12.1313 95.4946C11.7009 96.3948 10.7414 97.0868 9.25308 97.5704L4.94025 98.9717L4.34675 97.1451L8.43971 95.8152C9.53342 95.4598 10.2155 95.0076 10.4858 94.4585C10.7412 93.9018 10.6821 93.0484 10.3084 91.8984C10.0593 91.1316 9.64216 90.5192 9.05702 90.0611L2.71461 92.1219L2.11012 90.2615L14.4567 86.2498L15.0612 88.1103L10.613 89.5556Z" fill="white"/>
<path d="M12.9995 77.7222L0.0175781 73.0985V70.9645L12.9995 66.3408V68.4392L9.54951 69.5596V74.5745L12.9995 75.6949V77.7222ZM8.02013 74.0943V70.0397L1.79592 72.0492V72.0848L8.02013 74.0943Z" fill="white"/>
<path d="M2.04987 54.9232L5.01738 45.7902L6.57339 46.2958L5.39188 49.9321L16.1824 53.4381L15.5779 55.2986L4.78738 51.7925L3.60588 55.4288L2.04987 54.9232Z" fill="white"/>
<path d="M11.4671 33.5149L12.6169 31.9323L16.6453 34.8591C16.8708 34.4075 17.1857 33.9035 17.5899 33.3472C18.5585 32.014 19.5649 31.2138 20.609 30.9465C21.66 30.6697 22.7083 30.9111 23.7538 31.6707C24.9335 32.5278 25.5603 33.5107 25.634 34.6194C25.7051 35.7116 25.2111 36.9866 24.1519 38.4445C23.462 39.394 22.7058 40.2734 21.8834 41.0827L11.4671 33.5149ZM17.8826 35.758L21.8678 38.6535C22.2259 38.3421 22.5827 37.9419 22.9381 37.4527C24.2481 35.6495 24.1694 34.2148 22.702 33.1486C21.3592 32.173 20.0327 32.5868 18.7226 34.39C18.3603 34.8888 18.0802 35.3448 17.8826 35.758Z" fill="white"/>
<path d="M44.5462 6.09673L54.0175 3.01931L58.0291 15.3658L56.1687 15.9703L52.6517 5.14598L46.9012 7.01441L50.4183 17.8388L48.5578 18.4433L44.5462 6.09673Z" fill="white"/>
<path d="M69.7089 9.10915V13.9996H67.7527V1.1066C68.9857 0.928761 70.2898 0.839844 71.6651 0.839844C73.3011 0.839844 74.5401 1.18958 75.3818 1.88907C76.2236 2.57669 76.6444 3.56071 76.6444 4.84112C76.6444 7.74575 74.9846 9.19807 71.6651 9.19807C71.0367 9.19807 70.3847 9.16843 69.7089 9.10915ZM69.7089 7.52642C70.3017 7.62127 70.8945 7.66869 71.4872 7.66869C72.5305 7.66869 73.3308 7.44343 73.888 6.99292C74.4452 6.53055 74.7238 5.87256 74.7238 5.01896C74.7238 4.16535 74.4511 3.51922 73.9058 3.08056C73.3604 2.63004 72.5542 2.40479 71.4872 2.40479C70.8115 2.40479 70.2187 2.44628 69.7089 2.52927V7.52642Z" fill="white"/>
<path d="M91.5645 5.54144L90.4214 9.05935L95.6645 10.7629L95.1919 12.2174L89.9488 10.5139L88.542 14.8436L94.1233 16.6571L93.6287 18.1793L86.187 15.7613L90.1986 3.41477L97.6404 5.83274L97.1458 7.35491L91.5645 5.54144Z" fill="white"/>
<path d="M106.533 23.8841C107.319 24.4555 108.045 24.7267 108.711 24.6976C109.377 24.6685 109.937 24.3422 110.39 23.7188C110.829 23.1145 110.902 22.4791 110.61 21.8124C110.317 21.1457 109.576 20.3803 108.387 19.5162L107.668 18.9936L108.609 17.6988L109.328 18.2214C111.409 19.7336 112.868 19.9142 113.704 18.7632C114.401 17.8041 114.045 16.8123 112.635 15.7879C111.838 15.2095 110.732 14.8161 109.316 14.6076L109.783 13.0567C111.314 13.2896 112.65 13.8206 113.791 14.6499C114.875 15.4373 115.559 16.2712 115.842 17.1514C116.136 18.0386 116.011 18.8563 115.467 19.6044C114.972 20.2854 114.389 20.7045 113.718 20.8617C113.054 21.0093 112.246 20.8912 111.294 20.5072L111.273 20.536C112.777 21.9953 112.993 23.4635 111.92 24.9405C111.195 25.938 110.281 26.4606 109.176 26.5082C108.081 26.5628 106.911 26.1371 105.664 25.2312C104.484 24.374 103.566 23.2675 102.91 21.9115L104.261 20.959C104.864 22.247 105.621 23.222 106.533 23.8841Z" fill="white"/>
<path d="M127.089 30.1232L124.097 32.2974L127.337 36.7574L126.1 37.6563L122.86 33.1963L119.177 35.8723L122.626 40.62L121.331 41.5608L116.732 35.2304L127.234 27.5999L131.834 33.9302L130.539 34.8709L127.089 30.1232Z" fill="white"/>
<path d="M138.507 47.4068L133.467 49.0444L135.335 54.7948L140.375 53.1572L140.98 55.0177L128.633 59.0293L128.029 57.1689L133.881 55.2674L132.012 49.517L126.16 51.4184L125.556 49.558L137.902 45.5463L138.507 47.4068Z" fill="white"/>
<path d="M142.981 67.7546V77.3577H141.345V73.5342H129.999V71.5781H141.345V67.7546H142.981Z" fill="white"/>
<path d="M128.75 85.6102L139.668 94.0192L139.008 96.0488L125.233 96.4346L125.882 94.4388L129.509 94.4394L131.059 89.6699L128.124 87.5383L128.75 85.6102ZM132.365 90.5992L131.112 94.4554L137.652 94.4676L137.663 94.4337L132.365 90.5992Z" fill="white"/>
<path d="M117.35 111.641L116.305 113.08L112.708 110.466L113.753 109.028L116.055 110.7L121.909 102.643L132.411 110.274L131.262 111.857L122.054 105.167L118.5 110.058L127.708 116.748L126.558 118.331L117.35 111.641Z" fill="white"/>
<path d="M101.966 122.675L103.52 121.546L109.216 129.387L109.245 129.366L108.469 117.95L110.023 116.821L117.653 127.324L116.099 128.452L110.403 120.611L110.374 120.632L111.15 132.048L109.596 133.177L101.966 122.675Z" fill="white"/>
<path d="M90.7479 141.593C89.0904 142.132 87.5844 141.985 86.2297 141.154C84.8675 140.337 83.8713 138.959 83.2411 137.02C82.611 135.081 82.6052 133.375 83.2237 131.902C83.8347 130.445 84.9689 129.447 86.6264 128.908C88.2388 128.384 89.7169 128.502 91.0609 129.262C92.3972 130.037 93.3921 131.335 94.0457 133.154L96.3289 132.412L94.4275 126.56L96.2879 125.956L100.3 138.302L98.4391 138.907L96.8015 133.867L94.4506 134.631C94.7828 136.305 94.6199 137.761 93.9619 138.997C93.3076 140.244 92.2363 141.109 90.7479 141.593ZM87.121 130.43C86.0498 130.778 85.3321 131.485 84.9678 132.551C84.5959 133.632 84.6518 134.916 85.1354 136.405C85.619 137.893 86.327 138.959 87.2594 139.604C88.1842 140.263 89.1822 140.419 90.2533 140.071C91.3358 139.719 92.0629 139.003 92.4348 137.922C92.7991 136.856 92.7394 135.579 92.2558 134.091C91.7722 132.603 91.068 131.529 90.1432 130.869C89.2108 130.225 88.2034 130.079 87.121 130.43Z" fill="white"/>
</svg>
