<svg width="68" height="48" viewBox="0 0 68 48" fill="none"
    xmlns="http://www.w3.org/2000/svg">
    <path d="M56.7762 32.2745C54.0952 31.7915 53.072 31.3797 53.072 30.5642C53.072 29.8753 53.659 29.4319 54.825 29.4319C56.1496 29.4319 56.7603 29.9624 57.0459 30.7305C57.1649 31.0472 57.4901 31.2531 57.8312 31.2531H66.12C66.6673 31.2531 67.0797 30.7384 66.9528 30.1999C65.9851 26.1142 61.3053 24.3484 54.4839 24.3484C52.1123 24.3484 50.1055 24.5939 48.4398 25.0452C48.2891 24.8235 48.0353 24.6651 47.7259 24.6651H38.5091C38.1522 24.6651 37.8349 24.8789 37.7 25.2036C36.6213 27.777 35.8916 29.3052 35.146 31.1897C34.9397 31.7202 34.1862 31.7202 33.9721 31.1897C33.1313 29.1231 32.4253 27.4761 31.418 25.1798C31.2752 24.8631 30.9659 24.6572 30.6169 24.6572H20.3451C19.9723 24.6572 19.6867 24.8789 19.5519 25.164C17.6483 24.6018 15.3321 24.3405 12.6988 24.3405C4.63204 24.3405 0.650235 27.1277 0.650235 31.5856C0.650235 34.6737 1.57826 37.5638 11.0569 39.2742C15.0069 39.9947 15.2449 40.6123 15.2449 41.4675C15.2449 42.3227 14.4914 42.8373 13.0795 42.8373C11.5566 42.8373 10.8665 42.0693 10.5334 41.2458C10.4064 40.9212 10.0892 40.7153 9.7481 40.7153H0.856464C0.277437 40.7153 -0.127089 41.2775 0.0394803 41.8238C1.22133 45.6087 5.24279 47.9921 13.2699 47.9921C21.2969 47.9921 26.2147 45.3078 26.2147 40.0581C26.2147 36.2573 23.843 33.8027 14.9911 32.2666C12.3101 31.7836 11.2869 31.3718 11.2869 30.5563C11.2869 29.8674 11.8738 29.424 13.0398 29.424C14.3645 29.424 14.9752 29.9545 15.2608 30.7225C15.3797 31.0393 15.7049 31.2451 16.046 31.2451H23.1371C26.0719 35.6001 27.3965 37.5718 27.9756 38.4269C28.2373 38.8228 28.3801 39.2821 28.3801 39.7572V44.8011C28.3801 45.8067 28.3801 46.3134 28.5784 46.7014C28.6498 46.8519 28.7529 46.9786 28.8639 47.0973C29.094 47.4457 29.4905 47.6833 29.9506 47.6833H38.1125C38.525 47.6833 38.8819 47.4932 39.1198 47.1923C39.2705 47.0498 39.3975 46.8835 39.4926 46.7014C39.6909 46.3134 39.6909 45.8146 39.6909 44.8011V39.6622C39.6909 39.1871 39.8337 38.7199 40.1034 38.324L42.8796 34.2382C43.7283 36.2732 46.1554 38.0706 52.842 39.2821C56.7921 40.0026 57.03 40.6203 57.03 41.4754C57.03 42.3306 56.2765 42.8453 54.8646 42.8453C53.3417 42.8453 52.6516 42.0772 52.3185 41.2537C52.1916 40.9291 51.8743 40.7232 51.5332 40.7232H42.6575C42.0784 40.7232 41.6739 41.2854 41.8405 41.8317C43.0223 45.6166 47.0438 48 55.0709 48C63.0979 48 68.0157 45.3157 68.0157 40.066C68.0157 36.2653 65.644 33.8106 56.7921 32.2745H56.7762ZM15.4353 22.8281C15.8239 23.0261 16.3236 23.0261 17.3389 23.0261H22.8754C22.8754 23.0261 22.8912 23.0261 22.8992 23.0261H32.8616C40.8966 23.0261 43.5062 19.9696 43.5062 16.2323C43.5062 13.6034 41.9119 12.2257 40.0082 11.4022C39.4451 11.1567 39.4133 10.3728 39.9527 10.0878C41.436 9.30386 42.4512 8.06071 42.4512 5.89113C42.4512 2.47839 39.564 0 32.7585 0H17.3389C16.3316 0 15.8239 0 15.4353 0.197954C15.0942 0.372154 14.8166 0.649291 14.65 0.981854C14.4517 1.36985 14.4517 1.86869 14.4517 2.88222V20.1438C14.4517 21.1495 14.4517 21.6562 14.65 22.0442C14.8245 22.3847 15.1021 22.6618 15.4353 22.8281ZM25.7626 5.64566C25.8815 5.32102 26.1909 5.08347 26.5557 5.08347H29.5143C31.1007 5.08347 31.9098 5.78819 31.9098 6.8809C31.9098 7.86275 31.2752 8.78126 29.5461 8.78126H26.5478C26.183 8.78126 25.8736 8.54372 25.7546 8.21907V5.64566H25.7626ZM25.7626 14.0864C25.8815 13.7618 26.1909 13.5243 26.5557 13.5243H29.5143C31.5925 13.5243 32.2667 14.5457 32.2667 15.5988C32.2667 16.7945 31.4894 17.7842 29.4112 17.7842H26.5557C26.1909 17.7842 25.8815 17.5467 25.7626 17.222V14.0864ZM2.35559 22.8281C2.74425 23.0261 3.24396 23.0261 4.25924 23.0261H9.79569C10.803 23.0261 11.3107 23.0261 11.6993 22.8281C12.0404 22.6539 12.318 22.3768 12.4846 22.0442C12.6829 21.6562 12.6829 21.1574 12.6829 20.1438V2.88222C12.6829 1.87661 12.6829 1.36985 12.4846 0.981854C12.3101 0.641373 12.0325 0.364236 11.6993 0.197954C11.3107 0 10.811 0 9.79569 0H4.25924C3.25189 0 2.74425 0 2.35559 0.197954C2.01452 0.372154 1.7369 0.649291 1.57033 0.981854C1.37204 1.36985 1.37204 1.86869 1.37204 2.88222V20.1438C1.37204 21.1495 1.37204 21.6562 1.57033 22.0442C1.74483 22.3847 2.02245 22.6618 2.35559 22.8281Z" fill="white"/>

</svg>
