<svg width="92" height="48" viewBox="0 0 92 48" fill="none" xmlns="http://www.w3.org/2000/svg">
<g clip-path="url(#clip0_384_19)">
<path d="M8.72163 0C9.72362 0 10.5252 0.807379 10.5252 1.79707V3.27292C10.5252 8.09984 10.4904 10.713 10.2638 12.866C10.2377 13.0917 10.5426 13.1872 10.6472 12.9875C12.0848 10.2268 14.6377 5.12208 16.4326 1.74498C17.0076 0.668475 18.1229 0 19.3427 0H27.8117C28.805 0 29.6153 0.807379 29.6153 1.79707V21.0353C29.6153 22.025 28.805 22.8323 27.8117 22.8323H21.5122C20.519 22.8323 19.7087 22.025 19.7087 21.0353V20.5925C19.7087 17.0678 19.7435 13.7081 19.8916 11.7113C19.9091 11.4856 19.6128 11.4075 19.5083 11.5985C18.0793 14.3158 16.2409 17.6842 14.3502 21.1308C13.7751 22.1812 12.6686 22.8323 11.4662 22.8323H2.38732C1.39404 22.8323 0.58374 22.025 0.58374 21.0353V1.79707C0.58374 0.807379 1.39404 0 2.38732 0H8.72163Z" fill="white"/>
<path d="M39.5132 24.5859C40.5065 24.5859 41.3168 25.3933 41.3168 26.383V27.8589C41.3168 32.6858 41.2819 35.2989 41.0554 37.4519C41.0292 37.6776 41.3342 37.7731 41.4387 37.5735C42.8764 34.8127 45.4293 29.708 47.2241 26.3309C47.7905 25.2544 48.9057 24.5859 50.1256 24.5859H58.5945C59.5878 24.5859 60.3981 25.3933 60.3981 26.383V45.6212C60.3981 46.6109 59.5878 47.4183 58.5945 47.4183H52.2951C51.3018 47.4183 50.4915 46.6109 50.4915 45.6212V45.1785C50.4915 41.6538 50.5263 38.294 50.6745 36.2973C50.6919 36.0716 50.3957 35.9934 50.2911 36.1844C48.8622 38.9017 47.0237 42.2701 45.133 45.7167C44.558 46.7672 43.4514 47.4183 42.249 47.4183H33.1702C32.1769 47.4183 31.3666 46.6109 31.3666 45.6212V26.383C31.3666 25.3933 32.1769 24.5859 33.1702 24.5859H39.5045H39.5132Z" fill="white"/>
<path d="M49.5505 8.53391H42.6847C42.3972 8.53391 42.1619 8.29951 42.1619 8.01302V5.73847C42.1619 5.45198 42.3885 5.21758 42.676 5.21758H55.7019C56.5644 5.21758 57.2702 4.51438 57.2702 3.65491V1.57135C57.2702 0.711883 56.5731 0.0086815 55.7019 0.0086815C51.1711 0 37.9971 0 33.1789 0C32.1856 0 31.3753 0.807379 31.3753 1.79707V21.0353C31.3753 22.025 32.1856 22.8323 33.1789 22.8323H49.5505C57.7842 22.8323 60.494 19.0993 60.5462 15.6875C60.5027 12.2756 57.7842 8.54259 49.5505 8.54259V8.53391ZM45.9782 17.6408H43.1029C42.5802 17.6408 42.1619 17.2241 42.1619 16.7032V14.6544C42.1619 14.1335 42.5802 13.7168 43.1029 13.7168H45.9782C48.1042 13.7168 48.9145 14.6023 48.9319 15.6788C48.9058 16.7553 48.1042 17.6408 45.9782 17.6408Z" fill="white"/>
<path d="M29.2058 38.9886C29.8941 38.9886 30.3995 39.657 30.1816 40.2995C28.4478 45.6299 23.0719 47.9999 15.3696 47.9999C5.49787 47.9999 0 43.1644 0 35.9327C0 29.5431 4.47846 23.9956 15.7007 23.9956C24.8058 23.9956 29.1622 27.4248 30.3559 31.5659C30.5476 32.2257 30.0597 32.8768 29.3801 32.8768H20.5974C19.9265 32.8768 19.334 32.4514 19.0988 31.8176C18.6631 30.6543 17.7657 29.7601 15.7356 29.7601C13.0781 29.7601 11.806 31.7395 11.806 35.8893C11.806 38.8757 12.4247 41.9489 15.7356 41.9489C17.7831 41.9489 18.7154 41.0895 19.212 39.9348C19.4647 39.3532 20.0311 38.9712 20.6758 38.9712H29.2058V38.9886Z" fill="white"/>
<path d="M90.8063 38.9886C91.4946 38.9886 92 39.657 91.7822 40.2995C90.0483 45.6299 84.6724 47.9999 76.9702 47.9999C67.0984 47.9999 61.6005 43.1644 61.6005 35.9327C61.6005 29.5431 66.079 23.9956 77.3013 23.9956C86.4063 23.9956 90.7628 27.4248 91.9564 31.5659C92.1481 32.2257 91.6602 32.8768 90.9806 32.8768H82.1979C81.527 32.8768 80.9346 32.4514 80.6993 31.8176C80.2637 30.6543 79.3662 29.7601 77.3361 29.7601C74.6787 29.7601 73.4066 31.7395 73.4066 35.8893C73.4066 38.8757 74.0252 41.9489 77.3361 41.9489C79.3837 41.9489 80.3159 41.0895 80.8126 39.9348C81.0653 39.3532 81.6316 38.9712 82.2764 38.9712H90.8063V38.9886Z" fill="white"/>
</g>
<defs>
<clipPath id="clip0_384_19">
<rect width="92" height="48" fill="white"/>
</clipPath>
</defs>
</svg>
