<svg width="49" height="34" viewBox="0 0 49 34" fill="#cecece"
    xmlns="http://www.w3.org/2000/svg">
    <path d="M40.913 22.8611C38.9811 22.519 38.2438 22.2273 38.2438 21.6496C38.2438 21.1617 38.6668 20.8476 39.5069 20.8476C40.4615 20.8476 40.9016 21.2234 41.1073 21.7674C41.1931 21.9918 41.4274 22.1376 41.6732 22.1376H47.646C48.0404 22.1376 48.3376 21.773 48.2461 21.3916C47.5488 18.4975 44.1766 17.2468 39.2612 17.2468C37.5522 17.2468 36.1062 17.4207 34.9059 17.7403C34.7973 17.5833 34.6144 17.4711 34.3915 17.4711H27.7499C27.4927 17.4711 27.2641 17.6226 27.1669 17.8525C26.3896 19.6754 25.8638 20.7578 25.3265 22.0927C25.1779 22.4685 24.6349 22.4685 24.4806 22.0927C23.8747 20.6288 23.366 19.4622 22.6402 17.8357C22.5373 17.6113 22.3144 17.4655 22.0629 17.4655H14.6612C14.3925 17.4655 14.1868 17.6226 14.0896 17.8245C12.7178 17.4263 11.0489 17.2412 9.1513 17.2412C3.33851 17.2412 0.469273 19.2154 0.469273 22.3731C0.469273 24.5605 1.138 26.6077 7.96816 27.8192C10.8145 28.3296 10.986 28.7671 10.986 29.3728C10.986 29.9786 10.443 30.3431 9.42565 30.3431C8.32825 30.3431 7.83099 29.7991 7.59093 29.2158C7.49948 28.9858 7.27086 28.84 7.02509 28.84H0.617879C0.200639 28.84 -0.0908573 29.2382 0.0291707 29.6252C0.880798 32.3062 3.77862 33.9944 9.56282 33.9944C15.347 33.9944 18.8907 32.093 18.8907 28.3745C18.8907 25.6823 17.1817 23.9436 10.8031 22.8555C8.87123 22.5134 8.13392 22.2217 8.13392 21.644C8.13392 21.1561 8.55687 20.842 9.39707 20.842C10.3516 20.842 10.7917 21.2177 10.9974 21.7618C11.0832 21.9861 11.3175 22.132 11.5633 22.132H16.6731C18.7878 25.2168 19.7423 26.6133 20.1596 27.2191C20.3482 27.4995 20.4511 27.8248 20.4511 28.1613V31.7341C20.4511 32.4464 20.4511 32.8053 20.594 33.0802C20.6454 33.1867 20.7197 33.2765 20.7997 33.3606C20.9655 33.6074 21.2513 33.7757 21.5828 33.7757H27.4641C27.7613 33.7757 28.0186 33.641 28.19 33.4279C28.2986 33.327 28.3901 33.2092 28.4587 33.0802C28.6015 32.8053 28.6015 32.452 28.6015 31.7341V28.094C28.6015 27.7575 28.7044 27.4266 28.8988 27.1462L30.8992 24.2521C31.5108 25.6935 33.2598 26.9667 38.078 27.8248C40.9244 28.3352 41.0959 28.7727 41.0959 29.3784C41.0959 29.9842 40.5529 30.3487 39.5355 30.3487C38.4381 30.3487 37.9409 29.8047 37.7008 29.2214C37.6094 28.9914 37.3807 28.8456 37.135 28.8456H30.7392C30.3219 28.8456 30.0305 29.2438 30.1505 29.6308C31.0021 32.3118 33.8999 34 39.6841 34C45.4683 34 49.012 32.0986 49.012 28.3801C49.012 25.6879 47.303 23.9492 40.9244 22.8611H40.913ZM11.1232 16.1699C11.4033 16.3101 11.7633 16.3101 12.4949 16.3101H16.4844C16.4844 16.3101 16.4959 16.3101 16.5016 16.3101H23.6804C29.4703 16.3101 31.3508 14.1452 31.3508 11.4979C31.3508 9.63576 30.2019 8.65985 28.8302 8.07654C28.4244 7.90267 28.4015 7.34741 28.7902 7.1455C29.859 6.59023 30.5906 5.70967 30.5906 4.17288C30.5906 1.75553 28.5101 0 23.6061 0H12.4949C11.7691 0 11.4033 0 11.1232 0.140218C10.8774 0.263609 10.6774 0.459914 10.5573 0.69548C10.4144 0.970307 10.4144 1.32366 10.4144 2.04157V14.2686C10.4144 14.9809 10.4144 15.3398 10.5573 15.6146C10.6831 15.8558 10.8831 16.0521 11.1232 16.1699ZM18.5649 3.99901C18.6507 3.76905 18.8736 3.60079 19.1365 3.60079H21.2684C22.4115 3.60079 22.9945 4.09997 22.9945 4.87397C22.9945 5.56945 22.5373 6.22006 21.2913 6.22006H19.1308C18.8678 6.22006 18.6449 6.0518 18.5592 5.82184V3.99901H18.5649ZM18.5649 9.9779C18.6507 9.74794 18.8736 9.57968 19.1365 9.57968H21.2684C22.7659 9.57968 23.2517 10.3032 23.2517 11.0492C23.2517 11.8961 22.6916 12.5972 21.1941 12.5972H19.1365C18.8736 12.5972 18.6507 12.4289 18.5649 12.1989V9.9779ZM1.69813 16.1699C1.9782 16.3101 2.33828 16.3101 3.06988 16.3101H7.05938C7.78526 16.3101 8.15106 16.3101 8.43113 16.1699C8.6769 16.0465 8.87695 15.8502 8.99698 15.6146C9.13987 15.3398 9.13987 14.9865 9.13987 14.2686V2.04157C9.13987 1.32926 9.13987 0.970307 8.99698 0.69548C8.87123 0.454306 8.67119 0.258001 8.43113 0.140218C8.15106 0 7.79098 0 7.05938 0H3.06988C2.344 0 1.9782 0 1.69813 0.140218C1.45236 0.263609 1.25231 0.459914 1.13228 0.69548C0.989395 0.970307 0.989395 1.32366 0.989395 2.04157V14.2686C0.989395 14.9809 0.989395 15.3398 1.13228 15.6146C1.25803 15.8558 1.45808 16.0521 1.69813 16.1699Z" fill="white"></path>
</svg>