<svg width="144" height="144" viewBox="0 0 144 144" fill="none" xmlns="http://www.w3.org/2000/svg">
<g clip-path="url(#clip0_64_2928)">
<mask id="mask0_64_2928" style="mask-type:luminance" maskUnits="userSpaceOnUse" x="0" y="0" width="144" height="144">
<path d="M0 0H144V144H0V0Z" fill="white"/>
</mask>
<g mask="url(#mask0_64_2928)">
<path fill-rule="evenodd" clip-rule="evenodd" d="M104.49 86.2922C102.702 85.3982 93.936 81.0902 92.304 80.4902C90.672 79.8962 89.484 79.6022 88.29 81.3902C87.102 83.1722 83.688 87.1862 82.65 88.3742C81.606 89.5682 80.568 89.7122 78.786 88.8242C77.004 87.9242 71.256 86.0462 64.446 79.9742C59.148 75.2462 55.566 69.4082 54.528 67.6202C53.49 65.8382 54.414 64.8722 55.308 63.9842C56.112 63.1862 57.09 61.9022 57.984 60.8642C58.878 59.8202 59.172 59.0762 59.766 57.8822C60.366 56.6942 60.066 55.6562 59.616 54.7622C59.172 53.8682 55.608 45.0902 54.12 41.5202C52.674 38.0462 51.204 38.5202 50.112 38.4602C49.068 38.4122 47.88 38.4002 46.692 38.4002C45.504 38.4002 43.572 38.8442 41.94 40.6322C40.302 42.4142 35.7 46.7282 35.7 55.5062C35.7 64.2782 42.084 72.7562 42.978 73.9502C43.872 75.1382 55.548 93.1502 73.434 100.872C77.694 102.708 81.012 103.806 83.598 104.622C87.87 105.984 91.758 105.792 94.83 105.33C98.25 104.82 105.378 101.016 106.866 96.8522C108.348 92.6882 108.348 89.1182 107.904 88.3742C107.46 87.6302 106.272 87.1862 104.484 86.2922M71.952 130.71H71.928C61.3046 130.712 50.8762 127.856 41.736 122.442L39.576 121.158L17.124 127.05L23.118 105.162L21.708 102.918C15.7688 93.4643 12.6258 82.5229 12.642 71.3582C12.654 38.6582 39.258 12.0542 71.976 12.0542C79.7682 12.0339 87.4868 13.5609 94.6842 16.5468C101.882 19.5327 108.415 23.9179 113.904 29.4482C119.426 34.947 123.802 41.4859 126.78 48.6868C129.759 55.8877 131.28 63.6077 131.256 71.4002C131.244 104.1 104.64 130.71 71.952 130.71ZM122.424 20.9282C115.814 14.2745 107.949 8.99859 99.2853 5.40619C90.6215 1.81379 81.331 -0.0236785 71.952 0.000230355C32.628 0.000230355 0.612 32.0102 0.6 71.3522C0.581778 83.8727 3.86625 96.1766 10.122 107.022L0 144L37.824 134.076C48.2872 139.777 60.0126 142.764 71.928 142.764H71.958C111.282 142.764 143.298 110.754 143.31 71.4062C143.339 62.0299 141.509 52.7408 137.925 44.0764C134.341 35.412 129.074 27.5443 122.43 20.9282" fill="#0076FF"/>
</g>
</g>
<defs>
<clipPath id="clip0_64_2928">
<rect width="144" height="144" fill="white"/>
</clipPath>
</defs>
</svg>
