<svg width="144" height="144" viewBox="0 0 144 144" fill="none" xmlns="http://www.w3.org/2000/svg">
<path d="M144 72C144 91.0956 136.414 109.409 122.912 122.912C109.409 136.414 91.0956 144 72 144C52.9044 144 34.5909 136.414 21.0883 122.912C7.58569 109.409 0 91.0956 0 72C0 52.9044 7.58569 34.5909 21.0883 21.0883C34.5909 7.58569 52.9044 0 72 0C91.0956 0 109.409 7.58569 122.912 21.0883C136.414 34.5909 144 52.9044 144 72ZM74.583 53.154C67.575 56.07 53.577 62.1 32.589 71.244C29.187 72.594 27.402 73.92 27.234 75.222C26.964 77.409 29.709 78.273 33.444 79.452L35.019 79.947C38.691 81.144 43.641 82.539 46.206 82.593C48.546 82.653 51.15 81.693 54.018 79.713C73.632 66.477 83.754 59.787 84.384 59.643C84.834 59.535 85.464 59.409 85.878 59.787C86.292 60.165 86.256 60.867 86.211 61.056C85.941 62.217 75.168 72.225 69.597 77.409C67.86 79.029 66.627 80.172 66.375 80.433C65.8203 81.0003 65.2562 81.5584 64.683 82.107C61.263 85.401 58.707 87.867 64.818 91.899C67.761 93.843 70.119 95.436 72.468 97.038C75.024 98.784 77.58 100.521 80.892 102.699C81.732 103.251 82.542 103.812 83.322 104.382C86.301 106.506 88.992 108.414 92.295 108.108C94.221 107.928 96.21 106.128 97.218 100.728C99.603 87.975 104.292 60.354 105.372 48.969C105.44 48.0226 105.401 47.0716 105.255 46.134C105.168 45.3781 104.802 44.6818 104.229 44.181C103.409 43.6179 102.434 43.3253 101.439 43.344C98.739 43.389 94.572 44.838 74.583 53.154Z" fill="#0076FF"/>
</svg>
