<svg width="512" height="512" viewBox="0 0 512 512" fill="none" xmlns="http://www.w3.org/2000/svg">
<g clip-path="url(#clip0_385_380)">
<rect width="512" height="512" fill="#151B31"/>
<path d="M26.7696 158C32.8873 158 37.878 162.979 37.878 169.082V178.183C37.878 207.949 37.6634 224.063 36.2681 237.34C36.1071 238.732 37.9854 239.32 38.6293 238.089C47.4839 221.065 63.2074 189.586 74.2622 168.761C77.7504 162.122 84.6194 158 92.1323 158H144.294C150.411 158 155.402 162.979 155.402 169.082V287.717C155.402 293.82 150.411 298.798 144.294 298.798H105.495C99.377 298.798 94.3862 293.82 94.3862 287.717V284.986C94.3862 263.251 94.6009 242.533 95.5132 230.219C95.6205 228.828 93.7959 228.346 93.152 229.523C84.3511 246.28 73.028 267.052 61.3829 288.305C57.841 294.783 51.0257 298.798 43.6201 298.798H-12.2978C-18.4155 298.798 -23.4062 293.82 -23.4062 287.717V169.082C-23.4062 162.979 -18.4155 158 -12.2978 158H26.7159H26.7696Z" fill="white"/>
<path d="M216.422 309.614C222.54 309.614 227.53 314.593 227.53 320.696V329.797C227.53 359.563 227.316 375.677 225.92 388.954C225.759 390.346 227.638 390.935 228.282 389.703C237.136 372.679 252.86 341.2 263.915 320.375C267.403 313.737 274.272 309.614 281.785 309.614H333.946C340.064 309.614 345.055 314.593 345.055 320.696V439.331C345.055 445.434 340.064 450.413 333.946 450.413H295.147C289.029 450.413 284.039 445.434 284.039 439.331V436.601C284.039 414.865 284.253 394.147 285.166 381.834C285.273 380.442 283.448 379.96 282.804 381.138C274.003 397.894 262.68 418.666 251.035 439.92C247.493 446.397 240.678 450.413 233.272 450.413H177.355C171.237 450.413 166.246 445.434 166.246 439.331V320.696C166.246 314.593 171.237 309.614 177.355 309.614H216.368H216.422Z" fill="white"/>
<path d="M278.241 210.625H235.954C234.183 210.625 232.734 209.18 232.734 207.413V193.387C232.734 191.62 234.13 190.175 235.9 190.175H316.128C321.441 190.175 325.788 185.838 325.788 180.538V167.636C325.788 162.336 321.495 158 316.128 158C288.169 158 207.029 158 177.299 158C171.182 158 166.191 162.979 166.191 169.082V287.717C166.191 293.82 171.182 298.798 177.299 298.798H278.134C328.846 298.798 345.536 275.778 345.858 254.739C345.59 233.699 328.846 210.679 278.134 210.679L278.241 210.625ZM256.185 266.784H238.476C235.256 266.784 232.681 264.214 232.681 261.002V248.368C232.681 245.156 235.256 242.586 238.476 242.586H256.185C269.279 242.586 274.27 248.047 274.378 254.685C274.217 261.324 269.279 266.784 256.185 266.784Z" fill="white"/>
<path d="M152.882 398.43C157.121 398.43 160.234 402.552 158.892 406.514C148.213 439.385 115.102 454 67.6633 454C6.86198 454 -27 424.181 -27 379.585C-27 340.183 0.5833 305.974 69.7025 305.974C125.781 305.974 152.613 327.121 159.965 352.657C161.146 356.726 158.141 360.741 153.955 360.741H99.8617C95.7296 360.741 92.0804 358.118 90.6315 354.21C87.9483 347.036 82.4209 341.522 69.9172 341.522C53.5497 341.522 45.7147 353.728 45.7147 379.318C45.7147 397.734 49.5249 416.686 69.9172 416.686C82.5282 416.686 88.2703 411.386 91.3291 404.265C92.8854 400.678 96.3735 398.323 100.345 398.323H152.882V398.43Z" fill="white"/>
<path d="M532.287 398.43C536.526 398.43 539.639 402.552 538.297 406.514C527.618 439.385 494.508 454 447.069 454C386.267 454 352.405 424.181 352.405 379.585C352.405 340.183 379.989 305.974 449.108 305.974C505.187 305.974 532.019 327.121 539.371 352.657C540.551 356.726 537.546 360.741 533.36 360.741H479.267C475.135 360.741 471.486 358.118 470.037 354.21C467.354 347.036 461.826 341.522 449.322 341.522C432.955 341.522 425.12 353.728 425.12 379.318C425.12 397.734 428.93 416.686 449.322 416.686C461.933 416.686 467.676 411.386 470.734 404.265C472.291 400.678 475.779 398.323 479.75 398.323H532.287V398.43Z" fill="white"/>
</g>
<defs>
<clipPath id="clip0_385_380">
<rect width="512" height="512" fill="white"/>
</clipPath>
</defs>
</svg>
