<svg width="128" height="128" viewBox="0 0 128 128" fill="none" xmlns="http://www.w3.org/2000/svg">
<rect width="128" height="128" fill="#0076FF"/>
<g clip-path="url(#clip0_813_281)">
<path d="M99.3364 91.7565C95.1177 91.0119 93.5077 90.3771 93.5077 89.1197C93.5077 88.0578 94.4314 87.3742 96.2659 87.3742C98.3504 87.3742 99.3115 88.1921 99.7607 89.3761C99.948 89.8645 100.46 90.1818 100.996 90.1818H114.039C114.9 90.1818 115.549 89.3883 115.349 88.5582C113.827 82.2593 106.463 79.5372 95.7294 79.5372C91.9975 79.5372 88.8399 79.9156 86.2188 80.6112C85.9817 80.2695 85.5823 80.0253 85.0955 80.0253H70.5925C70.0308 80.0253 69.5316 80.3551 69.3194 80.8554C67.622 84.8229 66.4738 87.1787 65.3005 90.0841C64.976 90.902 63.7903 90.902 63.4534 90.0841C62.1303 86.898 61.0194 84.3589 59.4345 80.8189C59.2098 80.3305 58.7231 80.0131 58.1739 80.0131H42.011C41.4243 80.0131 40.9751 80.3551 40.7628 80.7945C37.7673 79.9278 34.1229 79.525 29.9792 79.525C17.286 79.525 11.0205 83.8218 11.0205 90.6944C11.0205 95.4552 12.4808 99.9109 27.3956 102.548C33.6111 103.659 33.9856 104.611 33.9856 105.929C33.9856 107.248 32.7998 108.041 30.5783 108.041C28.1819 108.041 27.0961 106.857 26.5718 105.587C26.3721 105.087 25.8729 104.769 25.3362 104.769H11.345C10.4339 104.769 9.79733 105.636 10.0594 106.478C11.9191 112.313 18.247 115.988 30.8778 115.988C43.5086 115.988 51.2469 111.849 51.2469 103.756C51.2469 97.8968 47.515 94.1125 33.5862 91.7443C29.3676 90.9997 27.7576 90.3649 27.7576 89.1075C27.7576 88.0456 28.6811 87.362 30.5159 87.362C32.6002 87.362 33.5613 88.1797 34.0105 89.3639C34.1978 89.8521 34.7095 90.1696 35.2462 90.1696H46.4043C51.0222 96.8836 53.1065 99.9231 54.0177 101.242C54.4296 101.852 54.6543 102.56 54.6543 103.292V111.068C54.6543 112.619 54.6543 113.4 54.9663 113.998C55.0785 114.23 55.2408 114.425 55.4155 114.608C55.7775 115.146 56.4016 115.512 57.1255 115.512H69.9684C70.6173 115.512 71.1792 115.219 71.5535 114.755C71.7906 114.535 71.9904 114.279 72.1402 113.998C72.4521 113.4 72.4521 112.631 72.4521 111.068V103.146C72.4521 102.413 72.6768 101.693 73.1013 101.083L77.4695 94.784C78.805 97.9211 82.6243 100.692 93.1456 102.56C99.3613 103.671 99.7358 104.623 99.7358 105.941C99.7358 107.26 98.55 108.053 96.3284 108.053C93.932 108.053 92.8463 106.869 92.322 105.6C92.1224 105.099 91.623 104.782 91.0864 104.782H77.1201C76.2089 104.782 75.5725 105.648 75.8346 106.491C77.6942 112.326 84.022 116 96.6529 116C109.284 116 117.022 111.862 117.022 103.768C117.022 97.909 113.29 94.1247 99.3613 91.7565H99.3364ZM34.2852 77.1933C34.8968 77.4985 35.6829 77.4985 37.2805 77.4985H45.9923C45.9923 77.4985 46.0174 77.4985 46.0298 77.4985H61.706C74.3492 77.4985 78.4556 72.7866 78.4556 67.0248C78.4556 62.9719 75.9468 60.8479 72.9515 59.5784C72.0653 59.1999 72.0153 57.9914 72.8641 57.552C75.198 56.3434 76.7956 54.4269 76.7956 51.0822C76.7956 45.8209 72.2525 42 61.5437 42H37.2805C35.6956 42 34.8968 42 34.2852 42.3052C33.7484 42.5737 33.3117 43.001 33.0494 43.5137C32.7374 44.1118 32.7374 44.8809 32.7374 46.4434V73.0552C32.7374 74.6055 32.7374 75.3866 33.0494 75.9847C33.3241 76.5097 33.7609 76.9369 34.2852 77.1933ZM50.5354 50.7037C50.7228 50.2032 51.2095 49.837 51.7836 49.837H56.439C58.9351 49.837 60.2082 50.9235 60.2082 52.6081C60.2082 54.1217 59.2098 55.5378 56.489 55.5378H51.7712C51.1968 55.5378 50.7101 55.1716 50.523 54.6711V50.7037H50.5354ZM50.5354 63.7166C50.7228 63.2161 51.2095 62.8499 51.7836 62.8499H56.439C59.709 62.8499 60.7699 64.4246 60.7699 66.0483C60.7699 67.8915 59.5468 69.4174 56.2767 69.4174H51.7836C51.2095 69.4174 50.7228 69.0511 50.5354 68.5505V63.7166ZM13.7039 77.1933C14.3155 77.4985 15.1018 77.4985 16.6994 77.4985H25.4111C26.9962 77.4985 27.795 77.4985 28.4066 77.1933C28.9433 76.9247 29.3801 76.4975 29.6422 75.9847C29.9542 75.3866 29.9542 74.6177 29.9542 73.0552V46.4434C29.9542 44.8931 29.9542 44.1118 29.6422 43.5137C29.3676 42.9888 28.9308 42.5615 28.4066 42.3052C27.795 42 27.0087 42 25.4111 42H16.6994C15.1143 42 14.3155 42 13.7039 42.3052C13.1672 42.5737 12.7304 43.001 12.4683 43.5137C12.1563 44.1118 12.1563 44.8809 12.1563 46.4434V73.0552C12.1563 74.6055 12.1563 75.3866 12.4683 75.9847C12.7429 76.5097 13.1797 76.9369 13.7039 77.1933Z" fill="white"/>
</g>
<defs>
<clipPath id="clip0_813_281">
<rect width="107" height="74" fill="white" transform="translate(10 42)"/>
</clipPath>
</defs>
</svg>
