<svg width="512" height="512" viewBox="0 0 512 512" fill="none" xmlns="http://www.w3.org/2000/svg">
<g clip-path="url(#clip0_276_1444)">
<rect width="512" height="512" fill="#151B31"/>
<path d="M446.806 325.299C424.338 321.254 415.763 317.805 415.763 310.975C415.763 305.206 420.682 301.492 430.453 301.492C441.555 301.492 446.673 305.935 449.066 312.368C450.063 315.02 452.789 316.744 455.647 316.744H525.113C529.699 316.744 533.156 312.434 532.092 307.924C523.983 273.706 484.763 258.918 427.595 258.918C407.719 258.918 390.901 260.974 376.942 264.754C375.679 262.897 373.552 261.57 370.959 261.57H293.716C290.725 261.57 288.066 263.361 286.936 266.08C277.895 287.632 271.78 300.431 265.531 316.214C263.803 320.657 257.488 320.657 255.693 316.214C248.647 298.906 242.73 285.112 234.288 265.881C233.092 263.228 230.499 261.504 227.574 261.504H141.49C138.366 261.504 135.973 263.361 134.843 265.748C118.889 261.04 99.4787 258.852 77.4093 258.852C9.80508 258.852 -23.5649 282.194 -23.5649 319.53C-23.5649 345.392 -15.7875 369.597 63.6491 383.921C96.7533 389.956 98.7475 395.128 98.7475 402.29C98.7475 409.452 92.4324 413.763 80.6 413.763C67.837 413.763 62.0538 407.33 59.2618 400.434C58.1983 397.715 55.5393 395.99 52.6809 395.99H-21.8366C-26.6892 395.99 -30.0794 400.699 -28.6835 405.275C-18.7788 436.973 14.9236 456.934 82.1954 456.934C149.467 456.934 190.681 434.453 190.681 390.486C190.681 358.655 170.805 338.098 96.6203 325.233C74.152 321.187 65.5769 317.739 65.5769 310.909C65.5769 305.139 70.496 301.426 80.2677 301.426C91.3689 301.426 96.4874 305.869 98.8804 312.301C99.8775 314.954 102.603 316.678 105.461 316.678H164.889C189.485 353.151 200.586 369.663 205.438 376.825C207.632 380.141 208.829 383.987 208.829 387.966V430.209C208.829 438.631 208.829 442.875 210.491 446.124C211.089 447.384 211.953 448.445 212.884 449.44C214.811 452.358 218.135 454.347 221.991 454.347H290.392C293.849 454.347 296.84 452.756 298.835 450.236C300.098 449.042 301.161 447.65 301.959 446.124C303.621 442.875 303.621 438.697 303.621 430.209V387.171C303.621 383.192 304.817 379.279 307.077 375.963L330.343 341.745C337.456 358.788 357.797 373.841 413.835 383.987C446.939 390.022 448.933 395.195 448.933 402.357C448.933 409.519 442.618 413.829 430.786 413.829C418.023 413.829 412.24 407.397 409.448 400.5C408.384 397.781 405.725 396.057 402.867 396.057H328.482C323.63 396.057 320.239 400.765 321.635 405.341C331.54 437.039 365.242 457 432.514 457C499.786 457 541 434.519 541 390.553C541 358.722 521.124 338.164 446.939 325.299H446.806ZM100.343 246.185C103.6 247.843 107.788 247.843 116.297 247.843H162.696C162.696 247.843 162.829 247.843 162.895 247.843H246.387C313.725 247.843 335.595 222.246 335.595 190.945C335.595 168.929 322.234 157.39 306.28 150.493C301.56 148.437 301.294 141.872 305.814 139.485C318.245 132.92 326.754 122.508 326.754 104.338C326.754 75.7565 302.557 55 245.522 55H116.297C107.854 55 103.6 55 100.343 56.6579C97.4845 58.1168 95.1579 60.4378 93.7619 63.223C92.1001 66.4725 92.1001 70.6503 92.1001 79.1386V223.705C92.1001 232.127 92.1001 236.371 93.7619 239.62C95.2243 242.472 97.5509 244.793 100.343 246.185ZM186.892 102.282C187.889 99.5635 190.482 97.5741 193.54 97.5741H218.334C231.629 97.5741 238.41 103.476 238.41 112.628C238.41 120.851 233.092 128.543 218.6 128.543H193.473C190.415 128.543 187.823 126.554 186.826 123.835V102.282H186.892ZM186.892 172.974C187.889 170.255 190.482 168.266 193.54 168.266H218.334C235.751 168.266 241.401 176.82 241.401 185.64C241.401 195.654 234.887 203.943 217.47 203.943H193.54C190.482 203.943 187.889 201.953 186.892 199.235V172.974ZM-9.273 246.185C-6.01577 247.843 -1.8279 247.843 6.68079 247.843H53.0798C61.522 247.843 65.7763 247.843 69.0335 246.185C71.8919 244.727 74.2185 242.405 75.6145 239.62C77.2763 236.371 77.2763 232.193 77.2763 223.705V79.1386C77.2763 70.7166 77.2763 66.4725 75.6145 63.223C74.1521 60.3715 71.8255 58.0505 69.0335 56.6579C65.7763 55 61.5884 55 53.0798 55H6.68079C-1.76142 55 -6.01577 55 -9.273 56.6579C-12.1314 58.1168 -14.458 60.4378 -15.8539 63.223C-17.5158 66.4725 -17.5158 70.6503 -17.5158 79.1386V223.705C-17.5158 232.127 -17.5158 236.371 -15.8539 239.62C-14.3915 242.472 -12.0649 244.793 -9.273 246.185Z" fill="white"/>
</g>
<defs>
<clipPath id="clip0_276_1444">
<rect width="512" height="512" fill="white"/>
</clipPath>
</defs>
</svg>
